The League of Extraordinary Gentlemen.2003.SWESUB.DVDRip.XviD.AC3.(5.1).-Zen_Bud



General
Complete name                    : The League of Extraordinary Gentlemen.avi
Format                           : AVI
File size                        : 1.37 GiB
Duration                         : 1h 50mn
Overall bit rate                 : 1 783 Kbps

Video
ID                               : 0
Format                           : MPEG-4 Visual
Codec ID/Hint                    : XviD
Duration                         : 1h 50mn
Bit rate                         : 1 324 Kbps
Width                            : 720 pixels
Height                           : 436 pixels
Display aspect ratio             : 2.35:1
Resolution                       : 8 bits
Colorimetry                      : 4:2:0
Scan type                        : Progressive
Bits/(Pixel*Frame)               : 0.169
Stream size                      : 1.02 GiB (74%)
Writing library                  : XviD 1.1.2 (UTC 2006-11-01)

Audio
ID                               : 1
Format                           : AC-3
Duration                         : 1h 50mn
Bit rate                         : 448 Kbps
Channel(s)                       : 6 channels
Channel positions                : Front: L C R, Side: L R, LFE
Sampling rate                    : 48.0 KHz
Stream size                      : 353 MiB (25%)


